<svg xmlns="http://www.w3.org/2000/svg" viewBox="0 0 595.28 482.91"><defs><style>.a,.b,.c,.cj,.ck,.cl{fill:none;stroke-miterlimit:10;}.a,.b{stroke:#808285;stroke-linecap:round;}.a,.b,.c{stroke-width:0.75px;}.b{stroke-dasharray:0 4;}.c{stroke:#231f20;stroke-linecap:square;}.bb,.d{font-size:9px;}.d,.n{fill:#231f20;}.aa,.ab,.bb,.bt,.co,.d,.e,.n,.x,.y,.z{font-family:Lato-Regular, Lato;}.bh,.bt,.co,.e,.n{font-size:8px;}.e,.r{fill:#808285;}.f{letter-spacing:-0.03em;}.g{letter-spacing:0em;}.h{letter-spacing:-0.03em;}.i{letter-spacing:0em;}.j{letter-spacing:-0.02em;}.k{letter-spacing:-0.04em;}.l{letter-spacing:-0.02em;}.m{fill:#d0d2d3;}.o{letter-spacing:-0.04em;}.p{letter-spacing:-0.01em;}.q{letter-spacing:0em;}.r{font-size:7px;}.bh,.r{font-family:Lato-Bold, Lato;}.ak,.al,.am,.an,.ao,.ap,.aq,.ar,.as,.at,.au,.bi,.ct,.s,.t,.u,.v,.w{font-weight:700;}.ay,.cb,.s{letter-spacing:0em;}.u{letter-spacing:-0.01em;}.v{letter-spacing:-0.01em;}.w,.z{letter-spacing:0em;}.y{letter-spacing:-0.04em;}.aa,.cg{letter-spacing:-0.02em;}.ab{letter-spacing:-0.01em;}.ac,.af{font-size:10px;}.ac,.av,.aw,.ax,.ay,.az,.ba{font-family:Lato-Light, Lato;}.ad{letter-spacing:0em;}.ae{letter-spacing:-0.03em;}.af{fill:#0072bc;font-family:Lato-Semibold, Lato;}.ag{letter-spacing:-0.01em;}.ah{letter-spacing:-0.02em;}.ai{letter-spacing:-0.01em;}.aj{letter-spacing:-0.03em;}.ak{letter-spacing:-0.01em;}.al{letter-spacing:0em;}.am{letter-spacing:-0.02em;}.an{letter-spacing:-0.02em;}.ao{letter-spacing:-0.01em;}.ap{letter-spacing:-0.03em;}.aq{letter-spacing:-0.01em;}.ar,.bl{letter-spacing:-0.02em;}.as{letter-spacing:-0.03em;}.at{letter-spacing:-0.09em;}.au{letter-spacing:-0.01em;}.aw{letter-spacing:-0.01em;}.ax{letter-spacing:-0.01em;}.az{letter-spacing:-0.02em;}.ba{letter-spacing:-0.01em;}.bc{letter-spacing:-0.01em;}.bd{letter-spacing:-0.01em;}.be{letter-spacing:-0.02em;}.bf{letter-spacing:-0.01em;}.bg{letter-spacing:-0.02em;}.bh,.bt,.co{fill:#ef4a60;}.bi,.bw{letter-spacing:0em;}.bj{letter-spacing:-0.01em;}.bk{letter-spacing:-0.02em;}.bm{letter-spacing:-0.01em;}.bn{letter-spacing:-0.03em;}.bo{letter-spacing:-0.01em;}.bp{letter-spacing:0em;}.bq{letter-spacing:-0.01em;}.br{letter-spacing:-0.01em;}.bs{letter-spacing:-0.03em;}.bu{letter-spacing:-0.04em;}.bv{letter-spacing:-0.03em;}.bx{letter-spacing:0em;}.by{letter-spacing:-0.01em;}.bz{letter-spacing:-0.01em;}.ca{letter-spacing:-0.06em;}.cc{letter-spacing:-0.01em;}.cd{letter-spacing:-0.01em;}.ce{letter-spacing:-0.02em;}.cf{letter-spacing:-0.02em;}.ch{letter-spacing:-0.02em;}.ci{letter-spacing:-0.11em;}.cj,.ck,.cl{stroke:#ef4a60;}.cj,.ck{stroke-width:0.5px;}.ck{stroke-dasharray:2 4;}.cm{letter-spacing:-0.02em;}.cn{letter-spacing:-0.01em;}.co{letter-spacing:0em;}.cp{letter-spacing:-0.02em;}.cq{letter-spacing:-0.03em;}.cr{letter-spacing:-0.01em;}.cs{letter-spacing:0em;}.ct{font-size:14px;font-family:ProximaNova-Bold, Proxima Nova;}</style></defs><title>basic-elements-print</title><line class="a" x1="157.72" y1="242.22" x2="157.72" y2="242.22"/><line class="b" x1="161.72" y1="242.22" x2="523.56" y2="242.22"/><line class="a" x1="525.56" y1="242.22" x2="525.56" y2="242.22"/><line class="a" x1="157.72" y1="271.23" x2="157.72" y2="271.23"/><line class="b" x1="161.72" y1="271.23" x2="523.56" y2="271.23"/><line class="a" x1="525.56" y1="271.23" x2="525.56" y2="271.23"/><line class="a" x1="157.72" y1="300.25" x2="157.72" y2="300.25"/><line class="b" x1="161.72" y1="300.25" x2="523.56" y2="300.25"/><line class="a" x1="525.56" y1="300.25" x2="525.56" y2="300.25"/><line class="a" x1="157.72" y1="329.26" x2="157.72" y2="329.26"/><line class="b" x1="161.72" y1="329.26" x2="523.56" y2="329.26"/><line class="a" x1="525.56" y1="329.26" x2="525.56" y2="329.26"/><line class="a" x1="157.72" y1="358.28" x2="157.72" y2="358.28"/><line class="b" x1="161.72" y1="358.28" x2="523.56" y2="358.28"/><line class="a" x1="525.56" y1="358.28" x2="525.56" y2="358.28"/><line class="c" x1="157.72" y1="387.42" x2="525.56" y2="387.42"/><text class="d" transform="translate(161.72 399.92)">Label</text><text class="d" transform="translate(210.13 399.92)">Label</text><text class="d" transform="translate(258.53 399.92)">Label</text><text class="d" transform="translate(306.93 399.92)">Label</text><text class="d" transform="translate(355.34 399.92)">Label</text><text class="d" transform="translate(403.74 399.92)">Label</text><text class="d" transform="translate(452.15 399.92)">Label</text><text class="d" transform="translate(500.55 399.92)">Label</text><text class="e" transform="translate(466.54 413.2)">X<tspan class="f" x="5.19" y="0"> </tspan><tspan class="g" x="6.97" y="0">Axis</tspan><tspan class="h" x="21.76" y="0"> </tspan><tspan class="i" x="23.56" y="0">T</tspan><tspan x="28.26" y="0">itle </tspan><tspan class="j" x="41.21" y="0">(</tspan><tspan x="43.17" y="0">unit)</tspan></text><text class="d" transform="translate(128.71 244.87)">Label</text><text class="d" transform="translate(128.71 273.89)">Label</text><text class="d" transform="translate(128.71 302.9)">Label</text><text class="d" transform="translate(128.71 331.92)">Label</text><text class="d" transform="translate(128.71 360.93)">Label</text><text class="d" transform="translate(128.71 389.94)">Label</text><text class="e" transform="translate(128.71 231)"><tspan class="k">Y</tspan><tspan class="f" x="4.68" y="0"> </tspan><tspan x="6.46" y="0">Axis</tspan><tspan class="h" x="21.24" y="0"> </tspan><tspan class="i" x="23.05" y="0">T</tspan><tspan x="27.75" y="0">itle </tspan><tspan class="l" x="40.7" y="0">(</tspan><tspan x="42.66" y="0">unit)</tspan></text><rect class="m" x="470.64" y="223.89" width="8" height="8"/><text class="n" transform="translate(482.64 231.25)"><tspan class="o">L</tspan><tspan x="3.82" y="0">e</tspan><tspan class="p" x="8.04" y="0">g</tspan><tspan x="12.14" y="0">end i</tspan><tspan class="q" x="29.27" y="0">t</tspan><tspan x="32.12" y="0">em</tspan></text><rect class="m" x="407.71" y="223.89" width="8" height="8"/><text class="n" transform="translate(419.71 231.25)"><tspan class="o">L</tspan><tspan x="3.82" y="0">e</tspan><tspan class="p" x="8.04" y="0">g</tspan><tspan x="12.14" y="0">end i</tspan><tspan class="q" x="29.27" y="0">t</tspan><tspan x="32.12" y="0">em</tspan></text><text class="r" transform="translate(128.71 413.35)"><tspan class="s">S</tspan><tspan class="t" x="3.83" y="0">ou</tspan><tspan class="u" x="11.8" y="0">r</tspan><tspan class="v" x="14.31" y="0">c</tspan><tspan class="w" x="17.62" y="0">e:</tspan><tspan class="x" x="23.16" y="0"> </tspan><tspan class="y" x="24.95" y="0">L</tspan><tspan class="z" x="28.29" y="0">o</tspan><tspan class="aa" x="32.26" y="0">r</tspan><tspan class="z" x="34.66" y="0">em </tspan><tspan class="ab" x="45.91" y="0">I</tspan><tspan class="z" x="47.82" y="0">psum</tspan></text><text class="ac" transform="translate(128.71 168.28)"><tspan class="ad">F</tspan><tspan x="5.61" y="0">igu</tspan><tspan class="ae" x="18.44" y="0">r</tspan><tspan x="21.69" y="0">e XX</tspan></text><text class="af" transform="translate(128.71 182.31)"><tspan class="t"><tspan class="ad">T</tspan><tspan x="5.92" y="0">itle </tspan><tspan class="ag" x="22.27" y="0">o</tspan><tspan class="ah" x="27.86" y="0">f</tspan><tspan x="31.22" y="0" xml:space="preserve"> the Chart - </tspan><tspan class="ai" x="84.1" y="0">S</tspan><tspan x="89.48" y="0">hould be as </tspan><tspan class="ai" x="142.28" y="0">S</tspan><tspan x="147.66" y="0">hort as </tspan><tspan class="aj" x="180.69" y="0">P</tspan><tspan x="186.55" y="0">ossible</tspan></tspan><tspan class="t" x="0" y="12">but </tspan><tspan class="ak" x="17.39" y="12">De</tspan><tspan class="t" x="30.18" y="12">fini</tspan><tspan class="al" x="44.14" y="12">t</tspan><tspan class="t" x="47.76" y="12">el</tspan><tspan class="am" x="55.49" y="12">y</tspan><tspan class="t" x="60.47" y="12"> </tspan><tspan class="an" x="62.96" y="12">N</tspan><tspan class="ao" x="70.48" y="12">o</tspan><tspan class="t" x="76.09" y="12">t </tspan><tspan class="ap" x="82.24" y="12">L</tspan><tspan class="t" x="87.09" y="12">on</tspan><tspan class="aq" x="98.41" y="12">g</tspan><tspan class="t" x="103.57" y="12">e</tspan><tspan class="ar" x="108.88" y="12">r</tspan><tspan class="t" x="112.36" y="12" xml:space="preserve"> than</tspan><tspan class="as" x="134.75" y="12"> </tspan><tspan class="at" x="136.94" y="12">T</tspan><tspan class="au" x="142.03" y="12">w</tspan><tspan class="t" x="149.9" y="12">o Lines |</tspan><tspan class="av" x="186.07" y="12"> </tspan><tspan class="aw" x="188.79" y="12">D</tspan><tspan class="ax" x="196.25" y="12">a</tspan><tspan class="ay" x="201.03" y="12">t</tspan><tspan class="av" x="204.44" y="12">e o</tspan><tspan class="az" x="217.95" y="12">r</tspan><tspan class="av" x="221.27" y="12"> </tspan><tspan class="ba" x="223.99" y="12">U</tspan><tspan class="av" x="231.12" y="12">nits</tspan></text><text class="bb" transform="translate(128.71 207.73)"><tspan class="bc">S</tspan><tspan x="4.79" y="0">u</tspan><tspan class="bd" x="9.81" y="0">b</tspan><tspan x="14.79" y="0">title i</tspan><tspan class="be" x="34.9" y="0">f</tspan><tspan x="37.89" y="0" xml:space="preserve"> ne</tspan><tspan class="bf" x="49.97" y="0">c</tspan><tspan x="54.18" y="0">essar</tspan><tspan class="bg" x="74.48" y="0">y</tspan></text><text class="bh" transform="translate(391.25 145.1)"><tspan class="bi">T<tspan class="g" x="4.76" y="0">itle</tspan></tspan><tspan class="x"><tspan class="i" x="0" y="9.6">S</tspan><tspan x="4.32" y="9.6">emibold</tspan><tspan x="0" y="19.2">Lig</tspan><tspan class="bj" x="10.19" y="19.2">h</tspan><tspan x="14.6" y="19.2">t </tspan><tspan class="bk" x="19.51" y="19.2">f</tspan><tspan x="22.18" y="19.2">o</tspan><tspan class="bl" x="26.72" y="19.2">r</tspan><tspan x="29.46" y="19.2" xml:space="preserve"> d</tspan><tspan class="bm" x="35.99" y="19.2">a</tspan><tspan class="q" x="39.92" y="19.2">t</tspan><tspan x="42.76" y="19.2">e</tspan><tspan class="bn" x="46.99" y="19.2">/</tspan><tspan x="50.4" y="19.2">units</tspan><tspan x="0" y="28.8">10 </tspan><tspan class="bo" x="11.33" y="28.8">p</tspan><tspan class="bp" x="15.76" y="28.8">t</tspan><tspan x="0" y="38.4">CMYK: 99 50 0 0</tspan></tspan></text><text class="bh" transform="translate(83.01 193.59)"><tspan class="t"><tspan class="bq">S</tspan><tspan class="bp" x="4.32" y="0">u</tspan><tspan class="br" x="8.83" y="0">b</tspan><tspan x="13.31" y="0">title</tspan></tspan><tspan class="x"><tspan class="bs" x="1.49" y="9.6">R</tspan><tspan x="6.24" y="9.6">egula</tspan><tspan class="bl" x="24.95" y="9.6">r</tspan><tspan x="13.71" y="19.2">9 </tspan><tspan class="bm" x="20.4" y="19.2">p</tspan><tspan class="bp" x="24.83" y="19.2">t</tspan><tspan x="-33.4" y="28.8">CMYK: 0 0 0 100</tspan></tspan></text><text class="bt" transform="translate(106.77 174.66)">4<tspan class="bm" x="4.64" y="0">p</tspan><tspan class="bp" x="9.07" y="0">t</tspan></text><text class="bh" transform="translate(202.27 231.03)"><tspan class="t"><tspan class="bu">Y</tspan><tspan class="f" x="4.86" y="0"> </tspan><tspan x="6.53" y="0">Axis</tspan><tspan class="bv" x="21.81" y="0"> </tspan><tspan class="bw" x="23.51" y="0">T</tspan><tspan x="28.28" y="0">itle</tspan></tspan><tspan class="x"><tspan class="bs" x="0" y="9.6">R</tspan><tspan x="4.75" y="9.6">egula</tspan><tspan class="bl" x="23.46" y="9.6">r</tspan><tspan x="0" y="19.2">8 </tspan><tspan class="bo" x="6.69" y="19.2">p</tspan><tspan x="11.12" y="19.2">t</tspan><tspan x="0" y="28.8">CMYK: 0 0 0 60</tspan></tspan></text><text class="bh" transform="translate(189.72 130.06)"><tspan class="t"><tspan class="bx">F</tspan><tspan x="4.52" y="0">igu</tspan><tspan class="by" x="15.29" y="0">r</tspan><tspan x="18.16" y="0">e </tspan><tspan class="bz" x="24.37" y="0">N</tspan><tspan class="g" x="30.46" y="0">umber</tspan></tspan><tspan class="x"><tspan x="0" y="9.6">Lig</tspan><tspan class="bj" x="10.19" y="9.6">h</tspan><tspan x="14.6" y="9.6">t</tspan><tspan x="0" y="19.2">10 </tspan><tspan class="bo" x="11.33" y="19.2">p</tspan><tspan class="bp" x="15.76" y="19.2">t</tspan><tspan x="0" y="28.8">CMYK: 0 0 0 100</tspan></tspan></text><text class="bh" transform="translate(405.49 413.23)"><tspan class="t">X<tspan class="f" x="5.36" y="0"> </tspan><tspan x="7.04" y="0">Axis</tspan><tspan class="bv" x="22.32" y="0"> </tspan><tspan class="bw" x="24.02" y="0">T</tspan><tspan x="28.78" y="0">itle</tspan></tspan><tspan class="x"><tspan class="bs" x="13.85" y="9.6">R</tspan><tspan x="18.6" y="9.6">egula</tspan><tspan class="bl" x="37.31" y="9.6">r</tspan><tspan x="26.06" y="19.2">8 </tspan><tspan class="bm" x="32.75" y="19.2">p</tspan><tspan class="bp" x="37.18" y="19.2">t</tspan><tspan x="-16.4" y="28.8">CMYK: 0 0 0 60</tspan></tspan></text><text class="bh" transform="translate(430.17 346.97)"><tspan class="t">X<tspan class="f" x="5.36" y="0"> </tspan><tspan x="7.04" y="0">Axis Line</tspan></tspan><tspan class="x"><tspan class="ca" x="0" y="9.6">W</tspan><tspan x="7.83" y="9.6">eig</tspan><tspan class="bj" x="18.14" y="9.6">h</tspan><tspan x="22.54" y="9.6">t: 0.75</tspan><tspan class="bm" x="45.27" y="9.6">p</tspan><tspan class="bp" x="49.7" y="9.6">t</tspan><tspan class="i" x="0" y="19.2">S</tspan><tspan x="4.32" y="19.2">olid</tspan><tspan x="0" y="28.8">CMYK: 0 0 0 100</tspan></tspan></text><text class="bh" transform="translate(214.14 414.21)"><tspan class="t"><tspan class="cb">S</tspan><tspan x="4.38" y="0">ou</tspan><tspan class="by" x="13.48" y="0">r</tspan><tspan class="cc" x="16.35" y="0">c</tspan><tspan x="20.14" y="0">es</tspan></tspan><tspan class="x"><tspan class="cd" x="0" y="9.6">B</tspan><tspan class="g" x="5.11" y="9.6">old</tspan><tspan class="ce" x="16.02" y="9.6"> </tspan><tspan class="bj" x="17.9" y="9.6">w</tspan><tspan x="24.13" y="9.6">o</tspan><tspan class="cf" x="28.66" y="9.6">r</tspan><tspan x="31.42" y="9.6">d “</tspan><tspan class="i" x="40.87" y="9.6">S</tspan><tspan x="45.19" y="9.6">ou</tspan><tspan class="cg" x="54.18" y="9.6">r</tspan><tspan class="cc" x="56.93" y="9.6">c</tspan><tspan class="ch" x="60.68" y="9.6">e</tspan><tspan class="ci" x="64.76" y="9.6">”</tspan><tspan x="66.84" y="9.6">, </tspan><tspan class="bs" x="70.7" y="9.6">R</tspan><tspan class="g" x="75.45" y="9.6">est </tspan><tspan class="cg" x="88.06" y="9.6">r</tspan><tspan x="90.8" y="9.6">egula</tspan><tspan class="bl" x="109.51" y="9.6">r</tspan><tspan x="0" y="19.2">7 </tspan><tspan class="bo" x="6.69" y="19.2">p</tspan><tspan x="11.12" y="19.2">t</tspan><tspan x="0" y="28.8">CMYK: 0 0 0 60</tspan></tspan></text><text class="bh" transform="translate(70.96 365.17)"><tspan class="t">Axis Labels</tspan><tspan class="x"><tspan class="bs" x="13.55" y="9.6">R</tspan><tspan x="18.3" y="9.6">egula</tspan><tspan class="bl" x="37.01" y="9.6">r</tspan><tspan x="25.77" y="19.2">9 </tspan><tspan class="bm" x="32.46" y="19.2">p</tspan><tspan class="bp" x="36.89" y="19.2">t</tspan><tspan x="-21.34" y="28.8">CMYK: 0 0 0 100</tspan></tspan></text><line class="cj" x1="128.71" y1="113.39" x2="128.71" y2="114.39"/><line class="ck" x1="128.71" y1="118.39" x2="128.71" y2="410.35"/><line class="cj" x1="128.71" y1="412.35" x2="128.71" y2="413.35"/><line class="cj" x1="525.56" y1="113.39" x2="525.56" y2="114.39"/><line class="ck" x1="525.56" y1="118.39" x2="525.56" y2="410.35"/><line class="cj" x1="525.56" y1="412.35" x2="525.56" y2="413.35"/><polyline class="cj" points="379.23 175.63 382.23 178.63 382.23 195.63 379.23 198.63"/><polyline class="cj" points="382.23 187.13 387.25 187.13 387.25 138.21"/><polyline class="cj" points="176.7 159.65 179.7 161.08 179.7 169.21 176.7 170.65"/><polyline class="cj" points="179.7 165.15 184.72 165.15 184.72 125.02"/><line class="cj" x1="194.21" y1="228.64" x2="198.21" y2="228.64"/><polyline class="cj" points="123.71 200.12 120.71 201.55 120.71 209.68 123.71 211.12"/><polyline class="cj" points="191.21 234.14 194.21 232.71 194.21 224.58 191.21 223.14"/><polyline class="cj" points="123.71 352.78 120.71 354.21 120.71 362.34 123.71 363.78"/><polyline class="cj" points="157.72 391.76 154.72 393.2 154.72 401.33 157.72 402.76"/><polyline class="cj" points="462.54 405.34 459.54 406.77 459.54 414.91 462.54 416.34"/><line class="cj" x1="120.71" y1="205.62" x2="115.69" y2="205.62"/><line class="cj" x1="459.54" y1="410.84" x2="449.54" y2="410.84"/><polyline class="cj" points="197.14 405.83 200.14 407.27 200.14 415.4 197.14 416.83"/><line class="cj" x1="200.14" y1="411.33" x2="210.14" y2="411.33"/><line class="cl" x1="415.17" y1="387.42" x2="515.17" y2="387.42"/><line class="cl" x1="415.43" y1="242.22" x2="515.43" y2="242.22"/><line class="cj" x1="425.17" y1="387.42" x2="425.17" y2="340.07"/><text class="bh" transform="translate(430.17 253.11)"><tspan class="t"><tspan class="cm">H</tspan><tspan x="6.04" y="0">ori</tspan><tspan class="cc" x="15.65" y="0">z</tspan><tspan x="19.26" y="0">o</tspan><tspan class="bj" x="23.85" y="0">n</tspan><tspan x="28.31" y="0">tal </tspan><tspan class="cn" x="39.28" y="0">G</tspan><tspan class="bp" x="45.02" y="0">ridlines</tspan></tspan><tspan class="x"><tspan class="ca" x="0" y="9.6">W</tspan><tspan x="7.83" y="9.6">eig</tspan><tspan class="bj" x="18.14" y="9.6">h</tspan><tspan x="22.54" y="9.6">t: 0.75</tspan><tspan class="bm" x="45.27" y="9.6">p</tspan><tspan class="bp" x="49.7" y="9.6">t</tspan><tspan class="bj" x="0" y="19.2">D</tspan><tspan class="bq" x="6.03" y="19.2">o</tspan><tspan class="q" x="10.49" y="19.2">tt</tspan><tspan x="15.94" y="19.2">ed</tspan><tspan x="0" y="28.8">CMYK: 0 0 0 60</tspan></tspan></text><text class="co" transform="translate(121.53 332.52) rotate(-90)">A<tspan class="g" x="5.4" y="0">lign all eleme</tspan><tspan class="bj" x="50.82" y="0">n</tspan><tspan class="g" x="55.23" y="0">ts</tspan></text><text class="co" transform="translate(536.43 294.15) rotate(-90)">A<tspan class="g" x="5.4" y="0">lign all eleme</tspan><tspan class="bj" x="50.82" y="0">n</tspan><tspan class="g" x="55.23" y="0">ts</tspan></text><text class="bt" transform="translate(295.66 106.22)"><tspan class="cp">M</tspan><tspan class="g" x="7.31" y="0">ax</tspan><tspan class="cg" x="15.27" y="0"> </tspan><tspan x="17.15" y="0">width: 14 cm</tspan></text><line class="cj" x1="128.71" y1="113.39" x2="525.56" y2="113.39"/><polyline class="cj" points="120.71 358.28 115.69 358.28 115.69 397.26 154.72 397.26"/><text class="bh" transform="translate(347.79 230.78)"><tspan class="t"><tspan class="cq">L</tspan><tspan class="bp" x="3.95" y="0">e</tspan><tspan class="bq" x="8.22" y="0">g</tspan><tspan x="12.37" y="0">end </tspan><tspan class="cr" x="27.64" y="0">I</tspan><tspan class="cs" x="29.9" y="0">t</tspan><tspan x="32.84" y="0">em</tspan></tspan><tspan class="x"><tspan class="bs" x="17.61" y="9.6">R</tspan><tspan x="22.36" y="9.6">egula</tspan><tspan class="bl" x="41.07" y="9.6">r</tspan><tspan x="29.83" y="19.2">8 </tspan><tspan class="bm" x="36.52" y="19.2">p</tspan><tspan class="bp" x="40.95" y="19.2">t</tspan><tspan x="-17.28" y="28.8">CMYK: 0 0 0 100</tspan></tspan></text><polyline class="cj" points="403.71 222.39 400.71 223.82 400.71 231.96 403.71 233.39"/><line class="cj" x1="400.71" y1="227.89" x2="395.71" y2="227.89"/><polyline class="cj" points="124.71 167.99 120.71 167.99 122.71 167.99 122.71 174.62 120.71 174.62 124.71 174.62"/><text class="bt" transform="translate(217.76 203.77)">4<tspan class="bm" x="4.64" y="0">p</tspan><tspan class="bp" x="9.07" y="0">t</tspan></text><polyline class="cj" points="215.76 197.09 211.76 197.09 213.76 197.09 213.76 203.72 211.76 203.72 215.76 203.72"/><text class="bt" transform="translate(157.72 238.19)">4<tspan class="bm" x="4.64" y="0">p</tspan><tspan class="bp" x="9.07" y="0">t</tspan></text><polyline class="cj" points="155.72 231.51 151.72 231.51 153.72 231.51 153.72 238.15 151.72 238.15 155.72 238.15"/><text class="bt" transform="translate(147.76 219.22)">12<tspan class="bo" x="9.28" y="0">p</tspan><tspan x="13.71" y="0">t</tspan></text><polyline class="cj" points="145.76 210.08 141.76 210.08 143.76 210.08 143.76 223.64 141.76 223.64 145.76 223.64"/><text class="bt" transform="translate(533.72 407.19)">4<tspan class="bm" x="4.64" y="0">p</tspan><tspan class="bp" x="9.07" y="0">t</tspan></text><polyline class="cj" points="531.72 400.51 527.72 400.51 529.72 400.51 529.72 407.15 527.72 407.15 531.72 407.15"/><text class="ct" transform="translate(50.8 66.13)">Print</text></svg>