<svg xmlns="http://www.w3.org/2000/svg" viewBox="0 0 846 591.61"><defs><style>.a,.b,.br,.bs,.bt,.bu{fill:none;stroke-miterlimit:10;}.a{stroke:#ccc;}.b{stroke:#231f20;}.c,.d,.z{font-size:12px;}.c{fill:#231f20;}.az,.bv,.c,.cz,.d,.u,.v,.w,.x,.y{font-family:Lato-Regular, Lato;}.d{fill:#666;}.e{letter-spacing:-0.03em;}.f{letter-spacing:0em;}.g{letter-spacing:-0.03em;}.h{letter-spacing:0em;}.i{letter-spacing:-0.02em;}.j{fill:#d0d2d3;}.k{letter-spacing:-0.04em;}.l{letter-spacing:0em;}.m{letter-spacing:-0.01em;}.n{letter-spacing:0em;}.bv,.o{font-size:11px;}.o{fill:#999;}.bh,.o{font-family:Lato-Bold, Lato;}.ah,.ai,.aj,.ak,.al,.am,.an,.ao,.ap,.aq,.ar,.as,.db,.p,.q,.r,.s,.t{font-weight:700;}.p{letter-spacing:0em;}.r{letter-spacing:-0.01em;}.s{letter-spacing:-0.01em;}.t,.x{letter-spacing:0em;}.v{letter-spacing:-0.04em;}.w{letter-spacing:-0.02em;}.y{letter-spacing:-0.01em;}.at,.au,.av,.aw,.ax,.ay,.z{font-family:Lato-Light, Lato;}.aa{letter-spacing:0em;}.ab{letter-spacing:-0.03em;}.ac{font-size:18px;fill:#0072bc;font-family:Lato-Semibold, Lato;}.ad{letter-spacing:-0.01em;}.ae{letter-spacing:-0.02em;}.af{letter-spacing:-0.01em;}.ag{letter-spacing:-0.03em;}.ah{letter-spacing:-0.01em;}.ai{letter-spacing:0em;}.aj{letter-spacing:-0.02em;}.ak{letter-spacing:-0.02em;}.al{letter-spacing:-0.01em;}.am{letter-spacing:-0.03em;}.an{letter-spacing:0em;}.ao{letter-spacing:-0.01em;}.ap,.cd{letter-spacing:-0.02em;}.aq{letter-spacing:-0.03em;}.ar{letter-spacing:-0.09em;}.as{letter-spacing:-0.01em;}.au{letter-spacing:-0.01em;}.av{letter-spacing:-0.01em;}.aw{letter-spacing:0em;}.ax{letter-spacing:-0.02em;}.ay{letter-spacing:-0.01em;}.az,.db{font-size:14px;}.ba{letter-spacing:-0.01em;}.bb{letter-spacing:-0.01em;}.bc{letter-spacing:-0.02em;}.bd{letter-spacing:-0.01em;}.be{letter-spacing:-0.02em;}.bf{letter-spacing:-0.04em;}.bg{letter-spacing:-0.03em;}.bh{font-size:10px;}.bh,.bv,.cz{fill:#ef4a60;}.bi{letter-spacing:0em;}.bj{letter-spacing:-0.01em;}.bk{letter-spacing:-0.01em;}.bl{letter-spacing:-0.02em;}.bm{letter-spacing:-0.01em;}.bn{letter-spacing:0em;}.bo{letter-spacing:-0.02em;}.bp{letter-spacing:-0.01em;}.bq{letter-spacing:-0.01em;}.br,.bs,.bt,.bu{stroke:#ef4a60;}.br,.bs,.bt{stroke-width:0.5px;}.bs{stroke-dasharray:1.99 3.97;}.bt{stroke-dasharray:1.99 3.97;}.bw{letter-spacing:0em;}.bx{letter-spacing:0em;}.by{letter-spacing:-0.01em;}.bz{letter-spacing:0em;}.ca{letter-spacing:-0.22em;}.cb{letter-spacing:-0.04em;}.cc{letter-spacing:0em;}.ce{letter-spacing:-0.01em;}.cf{letter-spacing:0em;}.cg{letter-spacing:-0.03em;}.ch{letter-spacing:-0.02em;}.ci{letter-spacing:-0.01em;}.cj{letter-spacing:-0.01em;}.ck{letter-spacing:-0.02em;}.cl{letter-spacing:-0.02em;}.cm{letter-spacing:-0.01em;}.cn{letter-spacing:-0.03em;}.co{letter-spacing:-0.03em;}.cp{letter-spacing:-0.01em;}.cq{letter-spacing:0em;}.cr{letter-spacing:-0.04em;}.cs{letter-spacing:-0.03em;}.ct{letter-spacing:0em;}.cu{letter-spacing:-0.04em;}.cv{letter-spacing:0em;}.cw{letter-spacing:-0.02em;}.cx{letter-spacing:-0.01em;}.cy{letter-spacing:-0.02em;}.cz{font-size:8px;}.da{letter-spacing:0em;}.db{font-family:ProximaNova-Bold, Proxima Nova;}</style></defs><title>basic-elements-web</title><line class="a" x1="183.54" y1="242.83" x2="797.54" y2="242.83"/><line class="a" x1="183.54" y1="291.63" x2="797.54" y2="291.63"/><line class="a" x1="183.54" y1="340.43" x2="797.54" y2="340.43"/><line class="a" x1="183.54" y1="389.23" x2="797.54" y2="389.23"/><line class="a" x1="183.54" y1="438.03" x2="797.54" y2="438.03"/><line class="b" x1="183.54" y1="486.83" x2="797.54" y2="486.83"/><text class="c" transform="translate(191.54 505.12)">Label</text><text class="c" transform="translate(272.97 505.12)">Label</text><text class="c" transform="translate(354.4 505.12)">Label</text><text class="c" transform="translate(435.82 505.12)">Label</text><text class="c" transform="translate(517.25 505.12)">Label</text><text class="c" transform="translate(598.68 505.12)">Label</text><text class="c" transform="translate(680.1 505.12)">Label</text><text class="c" transform="translate(761.53 505.12)">Label</text><text class="d" transform="translate(709.02 526.65)">X<tspan class="e" x="7.79" y="0"> </tspan><tspan class="f" x="10.46" y="0">Axis</tspan><tspan class="g" x="32.63" y="0"> </tspan><tspan class="h" x="35.35" y="0">T</tspan><tspan x="42.4" y="0">itle </tspan><tspan class="i" x="61.82" y="0">(</tspan><tspan x="64.76" y="0">unit)</tspan></text><text class="c" transform="translate(147.53 245.48)">Label</text><text class="c" transform="translate(147.53 295.16)">Label</text><text class="c" transform="translate(147.53 343.96)">Label</text><text class="c" transform="translate(147.53 392.76)">Label</text><text class="c" transform="translate(147.53 441.57)">Label</text><text class="c" transform="translate(147.53 490.36)">Label</text><rect class="j" x="721.16" y="216.66" width="8" height="8"/><text class="c" transform="translate(733.16 224.02)"><tspan class="k">L</tspan><tspan class="l" x="5.72" y="0">e</tspan><tspan class="m" x="12.06" y="0">g</tspan><tspan class="l" x="18.2" y="0">end i</tspan><tspan class="n" x="43.91" y="0">t</tspan><tspan x="48.18" y="0">em</tspan></text><rect class="j" x="632.77" y="216.66" width="8" height="8"/><text class="c" transform="translate(644.77 224.02)"><tspan class="k">L</tspan><tspan class="l" x="5.72" y="0">e</tspan><tspan class="m" x="12.06" y="0">g</tspan><tspan class="l" x="18.2" y="0">end i</tspan><tspan class="n" x="43.91" y="0">t</tspan><tspan x="48.18" y="0">em</tspan></text><text class="o" transform="translate(147.53 526.73)"><tspan class="p">S</tspan><tspan class="q" x="6.02" y="0">ou</tspan><tspan class="r" x="18.54" y="0">r</tspan><tspan class="s" x="22.48" y="0">c</tspan><tspan class="t" x="27.69" y="0">e:</tspan><tspan class="u" x="36.39" y="0"> </tspan><tspan class="v" x="39.21" y="0">L</tspan><tspan class="u" x="44.46" y="0">o</tspan><tspan class="w" x="50.69" y="0">r</tspan><tspan class="x" x="54.47" y="0">em </tspan><tspan class="y" x="72.14" y="0">I</tspan><tspan class="x" x="75.14" y="0">psum</tspan></text><text class="z" transform="translate(147.53 117.27)"><tspan class="aa">F</tspan><tspan x="6.73" y="0">igu</tspan><tspan class="ab" x="22.12" y="0">r</tspan><tspan x="26.03" y="0">e XX</tspan></text><text class="ac" transform="translate(147.53 141.75)"><tspan class="q"><tspan class="aa">T</tspan><tspan x="10.66" y="0">itle </tspan><tspan class="ad" x="40.09" y="0">o</tspan><tspan class="ae" x="50.16" y="0">f</tspan><tspan x="56.19" y="0" xml:space="preserve"> the Chart - </tspan><tspan class="af" x="151.38" y="0">S</tspan><tspan x="161.06" y="0">hould be as </tspan><tspan class="af" x="256.11" y="0">S</tspan><tspan x="265.78" y="0">hort as </tspan><tspan class="ag" x="325.24" y="0">P</tspan><tspan x="335.78" y="0">ossible</tspan></tspan><tspan class="q" x="0" y="21.6">but </tspan><tspan class="ah" x="31.31" y="21.6">De</tspan><tspan class="q" x="54.32" y="21.6">fini</tspan><tspan class="ai" x="79.45" y="21.6">t</tspan><tspan class="q" x="85.97" y="21.6">el</tspan><tspan class="aj" x="99.89" y="21.6">y</tspan><tspan class="q" x="108.85" y="21.6"> </tspan><tspan class="ak" x="113.33" y="21.6">N</tspan><tspan class="al" x="126.86" y="21.6">o</tspan><tspan class="q" x="136.97" y="21.6">t </tspan><tspan class="am" x="148.03" y="21.6">L</tspan><tspan class="an" x="156.77" y="21.6">on</tspan><tspan class="ao" x="177.15" y="21.6">g</tspan><tspan class="q" x="186.43" y="21.6">e</tspan><tspan class="ap" x="195.99" y="21.6">r</tspan><tspan class="q" x="202.25" y="21.6" xml:space="preserve"> than</tspan><tspan class="aq" x="242.56" y="21.6"> </tspan><tspan class="ar" x="246.5" y="21.6">T</tspan><tspan class="as" x="255.66" y="21.6">w</tspan><tspan class="q" x="269.81" y="21.6">o Lines |</tspan><tspan class="at" x="334.93" y="21.6"> </tspan><tspan class="au" x="339.81" y="21.6">D</tspan><tspan class="av" x="353.24" y="21.6">a</tspan><tspan class="aw" x="361.86" y="21.6">t</tspan><tspan class="at" x="367.99" y="21.6">e o</tspan><tspan class="ax" x="392.31" y="21.6">r</tspan><tspan class="at" x="398.29" y="21.6"> </tspan><tspan class="ay" x="403.17" y="21.6">U</tspan><tspan class="at" x="416.02" y="21.6">nits</tspan></text><text class="az" transform="translate(147.53 186.67)"><tspan class="ba">S</tspan><tspan x="7.45" y="0">u</tspan><tspan class="bb" x="15.26" y="0">b</tspan><tspan x="23.01" y="0">title i</tspan><tspan class="bc" x="54.29" y="0">f</tspan><tspan x="58.94" y="0" xml:space="preserve"> ne</tspan><tspan class="bd" x="77.73" y="0">c</tspan><tspan x="84.29" y="0">essar</tspan><tspan class="be" x="115.85" y="0">y</tspan></text><text class="d" transform="translate(147.53 223.28)"><tspan class="bf">Y</tspan><tspan class="bg" x="7.01" y="0"> </tspan><tspan x="9.68" y="0">Axis</tspan><tspan class="g" x="31.86" y="0"> </tspan><tspan class="h" x="34.57" y="0">T</tspan><tspan x="41.62" y="0">itle </tspan><tspan class="i" x="61.04" y="0">(</tspan><tspan x="63.98" y="0">unit)</tspan></text><text class="bh" transform="translate(210.84 80)"><tspan class="q"><tspan class="bi">F</tspan><tspan x="5.65" y="0">igu</tspan><tspan class="bj" x="19.11" y="0">r</tspan><tspan x="22.69" y="0">e </tspan><tspan class="bk" x="30.46" y="0">N</tspan><tspan x="38.07" y="0">umber</tspan></tspan><tspan class="u"><tspan class="bl" x="0" y="12">f</tspan><tspan x="3.34" y="12">o</tspan><tspan class="bm" x="9.01" y="12">n</tspan><tspan x="14.52" y="12">t-</tspan><tspan class="bm" x="21.82" y="12">w</tspan><tspan x="29.6" y="12">eig</tspan><tspan class="bm" x="42.48" y="12">h</tspan><tspan x="47.99" y="12">t: 300;</tspan><tspan class="bl" x="0" y="24">f</tspan><tspan x="3.34" y="24">o</tspan><tspan class="bm" x="9.01" y="24">n</tspan><tspan x="14.52" y="24">t-si</tspan><tspan class="bk" x="28.55" y="24">z</tspan><tspan class="bn" x="32.97" y="24">e: 12</tspan><tspan class="bo" x="54.91" y="24">p</tspan><tspan x="60.32" y="24">x;</tspan><tspan class="bp" x="0" y="36">c</tspan><tspan x="4.69" y="36">olor: </tspan><tspan class="bq" x="27.08" y="36">r</tspan><tspan x="30.61" y="36">gb(0,0,0);</tspan></tspan></text><line class="br" x1="147.53" y1="108.53" x2="147.53" y2="109.53"/><line class="bs" x1="147.53" y1="113.5" x2="147.53" y2="522.63"/><line class="br" x1="147.53" y1="524.62" x2="147.53" y2="525.62"/><line class="br" x1="797.54" y1="108.53" x2="797.54" y2="109.53"/><line class="bt" x1="797.54" y1="113.5" x2="797.54" y2="522.8"/><line class="br" x1="797.54" y1="524.79" x2="797.54" y2="525.79"/><polyline class="br" points="595.3 130.39 598.3 135.09 598.3 161.7 595.3 166.39"/><polyline class="br" points="598.3 149.43 603.32 149.43 603.32 93.51"/><polyline class="br" points="198.54 107.73 201.54 109.17 201.54 117.3 198.54 118.73"/><polyline class="br" points="201.83 113.23 206.84 113.23 206.84 73.1"/><polyline class="br" points="143.53 176.89 140.53 178.59 140.53 188.2 143.53 189.89"/><polyline class="br" points="143.53 432.53 140.53 433.96 140.53 442.09 143.53 443.53"/><polyline class="br" points="187.54 496.09 184.54 497.52 184.54 505.65 187.54 507.09"/><line class="br" x1="140.53" y1="183.39" x2="135.51" y2="183.39"/><line class="bu" x1="626.69" y1="242.83" x2="785.54" y2="242.83"/><line class="bu" x1="626.69" y1="486.83" x2="785.54" y2="486.83"/><line class="br" x1="631.41" y1="300.94" x2="631.41" y2="242.83"/><line class="br" x1="631.41" y1="486.83" x2="631.41" y2="428.71"/><text class="bv" transform="translate(810.98 343.27) rotate(-90)"><tspan class="bw">A</tspan><tspan class="bx" x="7.42" y="0">lign all eleme</tspan><tspan class="by" x="69.88" y="0">n</tspan><tspan x="75.94" y="0">ts</tspan></text><text class="bv" transform="translate(140.58 343.27) rotate(-90)"><tspan class="bw">A</tspan><tspan class="bx" x="7.42" y="0">lign all eleme</tspan><tspan class="by" x="69.88" y="0">n</tspan><tspan x="75.94" y="0">ts</tspan></text><text class="bh" transform="translate(607.32 102.13)"><tspan class="q"><tspan class="bz">T</tspan><tspan x="5.96" y="0">itle</tspan></tspan><tspan class="u"><tspan class="bl" x="0" y="12">f</tspan><tspan x="3.34" y="12">o</tspan><tspan class="bm" x="9.01" y="12">n</tspan><tspan x="14.52" y="12">t-</tspan><tspan class="bm" x="21.82" y="12">w</tspan><tspan x="29.6" y="12">eig</tspan><tspan class="bm" x="42.48" y="12">h</tspan><tspan x="47.99" y="12">t: 600; </tspan><tspan class="ca" x="79.21" y="12">/</tspan><tspan x="81.5" y="12">/</tspan><tspan class="cb" x="86.02" y="12">F</tspan><tspan class="cc" x="91.24" y="12">o</tspan><tspan class="cd" x="96.91" y="12">r</tspan><tspan x="100.34" y="12" xml:space="preserve"> title</tspan><tspan class="bl" x="0" y="24">f</tspan><tspan x="3.34" y="24">o</tspan><tspan class="bm" x="9.01" y="24">n</tspan><tspan x="14.52" y="24">t-</tspan><tspan class="bm" x="21.82" y="24">w</tspan><tspan x="29.6" y="24">eig</tspan><tspan class="bm" x="42.48" y="24">h</tspan><tspan x="47.99" y="24">t: 300; </tspan><tspan class="ca" x="79.21" y="24">/</tspan><tspan x="81.5" y="24">/</tspan><tspan class="cb" x="86.02" y="24">F</tspan><tspan class="cc" x="91.24" y="24">o</tspan><tspan class="cd" x="96.91" y="24">r</tspan><tspan x="100.34" y="24" xml:space="preserve"> d</tspan><tspan class="ce" x="108.5" y="24">a</tspan><tspan class="cf" x="113.4" y="24">t</tspan><tspan class="bn" x="116.96" y="24">e</tspan><tspan class="cg" x="122.24" y="24">/</tspan><tspan class="bn" x="126.51" y="24">units</tspan><tspan class="bl" x="0" y="36">f</tspan><tspan x="3.34" y="36">o</tspan><tspan class="bm" x="9.01" y="36">n</tspan><tspan x="14.52" y="36">t-si</tspan><tspan class="bk" x="28.55" y="36">z</tspan><tspan class="bn" x="32.97" y="36">e: 18</tspan><tspan class="bo" x="54.91" y="36">p</tspan><tspan x="60.32" y="36">x;</tspan><tspan class="bp" x="0" y="48">c</tspan><tspan x="4.69" y="48">olor: </tspan><tspan class="bq" x="27.08" y="48">r</tspan><tspan x="30.61" y="48">gb(0,114,188);</tspan></tspan></text><text class="bh" transform="translate(635.41 263.44)"><tspan class="q"><tspan class="ch">H</tspan><tspan x="7.55" y="0">ori</tspan><tspan class="bp" x="19.56" y="0">z</tspan><tspan x="24.07" y="0">o</tspan><tspan class="ci" x="29.81" y="0">n</tspan><tspan class="bn" x="35.38" y="0">tal </tspan><tspan class="cj" x="49.09" y="0">G</tspan><tspan class="cc" x="56.28" y="0">ridlines</tspan></tspan><tspan class="u"><tspan x="0" y="12">bo</tspan><tspan class="ck" x="11.27" y="12">r</tspan><tspan x="14.71" y="12">de</tspan><tspan class="cl" x="25.59" y="12">r</tspan><tspan class="bn" x="29.03" y="12">-width: 1</tspan><tspan class="bo" x="68.62" y="12">p</tspan><tspan x="74.03" y="12">x;</tspan><tspan x="0" y="24">bo</tspan><tspan class="ck" x="11.27" y="24">r</tspan><tspan x="14.71" y="24">de</tspan><tspan class="cl" x="25.59" y="24">r</tspan><tspan class="bn" x="29.03" y="24">-</tspan><tspan class="ci" x="32.75" y="24">w</tspan><tspan class="bn" x="40.53" y="24">eig</tspan><tspan class="bm" x="53.41" y="24">h</tspan><tspan x="58.92" y="24">t: solid;</tspan><tspan x="0" y="36">bo</tspan><tspan class="ck" x="11.27" y="36">r</tspan><tspan x="14.71" y="36">de</tspan><tspan class="cl" x="25.59" y="36">r</tspan><tspan class="bn" x="29.03" y="36">-</tspan><tspan class="bp" x="32.75" y="36">c</tspan><tspan class="cc" x="37.43" y="36">olor: </tspan><tspan class="cm" x="59.83" y="36">r</tspan><tspan class="bn" x="63.35" y="36">gb(204,204,204); </tspan></tspan></text><text class="bh" transform="translate(635.41 436.14)"><tspan class="q">X<tspan class="cn" x="6.71" y="0"> </tspan><tspan x="8.8" y="0">Axis Line</tspan></tspan><tspan class="u"><tspan x="0" y="12">bo</tspan><tspan class="ck" x="11.27" y="12">r</tspan><tspan x="14.71" y="12">de</tspan><tspan class="cl" x="25.59" y="12">r</tspan><tspan class="bn" x="29.03" y="12">-width: 1</tspan><tspan class="bo" x="68.62" y="12">p</tspan><tspan x="74.03" y="12">x;</tspan><tspan x="0" y="24">bo</tspan><tspan class="ck" x="11.27" y="24">r</tspan><tspan x="14.71" y="24">de</tspan><tspan class="cl" x="25.59" y="24">r</tspan><tspan class="bn" x="29.03" y="24">-</tspan><tspan class="ci" x="32.75" y="24">w</tspan><tspan class="bn" x="40.53" y="24">eig</tspan><tspan class="bm" x="53.41" y="24">h</tspan><tspan x="58.92" y="24">t: solid;</tspan><tspan x="0" y="36">bo</tspan><tspan class="ck" x="11.27" y="36">r</tspan><tspan x="14.71" y="36">de</tspan><tspan class="cl" x="25.59" y="36">r</tspan><tspan class="bn" x="29.03" y="36">-</tspan><tspan class="bp" x="32.75" y="36">c</tspan><tspan class="cc" x="37.43" y="36">olor: </tspan><tspan class="cm" x="59.83" y="36">r</tspan><tspan class="bn" x="63.35" y="36">gb(0,0,0); </tspan></tspan></text><text class="bh" transform="translate(96.89 168.36)"><tspan class="q"><tspan class="bp">S</tspan><tspan x="5.4" y="0">u</tspan><tspan class="bm" x="11.04" y="0">b</tspan><tspan class="cc" x="16.64" y="0">title</tspan></tspan><tspan class="u"><tspan class="bl" x="-42.03" y="12">f</tspan><tspan x="-38.69" y="12">o</tspan><tspan class="bm" x="-33.02" y="12">n</tspan><tspan x="-27.51" y="12">t-</tspan><tspan class="bm" x="-20.21" y="12">w</tspan><tspan x="-12.43" y="12">eig</tspan><tspan class="bm" x="0.45" y="12">h</tspan><tspan x="5.96" y="12">t: 400;</tspan><tspan class="bl" x="-33.29" y="24">f</tspan><tspan x="-29.95" y="24">o</tspan><tspan class="bm" x="-24.28" y="24">n</tspan><tspan x="-18.77" y="24">t-si</tspan><tspan class="bk" x="-4.74" y="24">z</tspan><tspan class="bn" x="-0.32" y="24">e: 14</tspan><tspan class="bo" x="21.62" y="24">p</tspan><tspan x="27.02" y="24">x;</tspan><tspan class="bp" x="-36.68" y="36">c</tspan><tspan x="-32" y="36">olor: </tspan><tspan class="bq" x="-9.6" y="36">r</tspan><tspan x="-6.07" y="36">gb(0,0,0);</tspan></tspan></text><text class="bh" transform="translate(81.82 454.77)"><tspan class="q">Axis Labels</tspan><tspan class="u"><tspan class="bl" x="-26.96" y="12">f</tspan><tspan x="-23.62" y="12">o</tspan><tspan class="bm" x="-17.95" y="12">n</tspan><tspan x="-12.44" y="12">t-</tspan><tspan class="bm" x="-5.14" y="12">w</tspan><tspan x="2.65" y="12">eig</tspan><tspan class="bm" x="15.52" y="12">h</tspan><tspan x="21.03" y="12">t: 400;</tspan><tspan class="bl" x="-18.22" y="24">f</tspan><tspan x="-14.88" y="24">o</tspan><tspan class="bm" x="-9.21" y="24">n</tspan><tspan x="-3.7" y="24">t-si</tspan><tspan class="bk" x="10.33" y="24">z</tspan><tspan class="bn" x="14.75" y="24">e: 12</tspan><tspan class="bo" x="36.69" y="24">p</tspan><tspan x="42.1" y="24">x;</tspan><tspan class="bp" x="-21.61" y="36">c</tspan><tspan x="-16.92" y="36">olor: </tspan><tspan class="bq" x="5.48" y="36">r</tspan><tspan x="9" y="36">gb(0,0,0);</tspan></tspan></text><polyline class="br" points="628.77 215.16 625.77 216.6 625.77 224.73 628.77 226.16"/><line class="br" x1="625.77" y1="220.66" x2="601.32" y2="220.66"/><polyline class="br" points="705.02 517.61 702.02 519.04 702.02 527.17 705.02 528.61"/><line class="br" x1="702.02" y1="523.11" x2="689.02" y2="523.11"/><polyline class="br" points="252.78 518.06 255.78 519.5 255.78 527.63 252.78 529.06"/><line class="br" x1="255.78" y1="523.56" x2="268.78" y2="523.56"/><text class="bh" transform="translate(542.55 205.74)"><tspan class="q"><tspan class="co">L</tspan><tspan x="4.94" y="0">e</tspan><tspan class="bp" x="10.27" y="0">g</tspan><tspan class="bn" x="15.46" y="0">end </tspan><tspan class="cp" x="34.55" y="0">I</tspan><tspan class="cq" x="37.38" y="0">t</tspan><tspan class="bn" x="41.05" y="0">em</tspan></tspan><tspan class="u"><tspan class="bl" x="-21.88" y="12">f</tspan><tspan x="-18.54" y="12">o</tspan><tspan class="bm" x="-12.88" y="12">n</tspan><tspan x="-7.36" y="12">t-</tspan><tspan class="bm" x="-0.06" y="12">w</tspan><tspan x="7.72" y="12">eig</tspan><tspan class="bm" x="20.6" y="12">h</tspan><tspan x="26.11" y="12">t: 400;</tspan><tspan class="bl" x="-13.14" y="24">f</tspan><tspan x="-9.8" y="24">o</tspan><tspan class="bm" x="-4.13" y="24">n</tspan><tspan x="1.38" y="24">t-si</tspan><tspan class="bk" x="15.41" y="24">z</tspan><tspan class="bn" x="19.83" y="24">e: 12</tspan><tspan class="bo" x="41.77" y="24">p</tspan><tspan x="47.17" y="24">x;</tspan><tspan class="bp" x="-16.53" y="36">c</tspan><tspan x="-11.85" y="36">olor: </tspan><tspan class="bq" x="10.55" y="36">r</tspan><tspan x="14.08" y="36">gb(0,0,0);</tspan></tspan></text><polyline class="br" points="239.52 214.16 242.52 215.6 242.52 223.73 239.52 225.16"/><line class="br" x1="274.75" y1="219.66" x2="242.52" y2="219.66"/><text class="bh" transform="translate(278.81 205.74)"><tspan class="q"><tspan class="cr">Y</tspan><tspan class="cn" x="6.07" y="0"> </tspan><tspan x="8.17" y="0">Axis</tspan><tspan class="cs" x="27.26" y="0"> </tspan><tspan class="bz" x="29.39" y="0">T</tspan><tspan class="cc" x="35.35" y="0">itle</tspan></tspan><tspan class="u"><tspan class="bl" x="0" y="12">f</tspan><tspan x="3.34" y="12">o</tspan><tspan class="bm" x="9.01" y="12">n</tspan><tspan x="14.52" y="12">t-</tspan><tspan class="bm" x="21.82" y="12">w</tspan><tspan x="29.6" y="12">eig</tspan><tspan class="bm" x="42.48" y="12">h</tspan><tspan x="47.99" y="12">t: 400;</tspan><tspan class="bl" x="0" y="24">f</tspan><tspan x="3.34" y="24">o</tspan><tspan class="bm" x="9.01" y="24">n</tspan><tspan x="14.52" y="24">t-si</tspan><tspan class="bk" x="28.55" y="24">z</tspan><tspan class="bn" x="32.97" y="24">e: 12</tspan><tspan class="bo" x="54.91" y="24">p</tspan><tspan x="60.32" y="24">x;</tspan><tspan class="bp" x="0" y="36">c</tspan><tspan x="4.69" y="36">olor: </tspan><tspan class="bq" x="27.08" y="36">r</tspan><tspan x="30.61" y="36">gb(102,102,102);</tspan></tspan></text><text class="bh" transform="translate(634.95 524.96)"><tspan class="q">X<tspan class="cn" x="6.71" y="0"> </tspan><tspan x="8.8" y="0">Axis</tspan><tspan class="cs" x="27.9" y="0"> </tspan><tspan class="bz" x="30.02" y="0">T</tspan><tspan class="cc" x="35.98" y="0">itle</tspan></tspan><tspan class="u"><tspan class="bl" x="-26.59" y="12">f</tspan><tspan x="-23.25" y="12">o</tspan><tspan class="bm" x="-17.58" y="12">n</tspan><tspan x="-12.07" y="12">t-</tspan><tspan class="bm" x="-4.77" y="12">w</tspan><tspan x="3.02" y="12">eig</tspan><tspan class="bm" x="15.89" y="12">h</tspan><tspan x="21.4" y="12">t: 400;</tspan><tspan class="bl" x="-17.85" y="24">f</tspan><tspan x="-14.51" y="24">o</tspan><tspan class="bm" x="-8.84" y="24">n</tspan><tspan x="-3.33" y="24">t-si</tspan><tspan class="bk" x="10.7" y="24">z</tspan><tspan class="bn" x="15.13" y="24">e: 12</tspan><tspan class="bo" x="37.06" y="24">p</tspan><tspan x="42.47" y="24">x;</tspan><tspan class="bp" x="-56.04" y="36">c</tspan><tspan x="-51.35" y="36">olor: </tspan><tspan class="bq" x="-28.95" y="36">r</tspan><tspan x="-25.43" y="36">gb(102,102,102);</tspan></tspan></text><text class="bh" transform="translate(272.78 524.96)"><tspan class="q"><tspan class="ct">S</tspan><tspan x="5.47" y="0">ou</tspan><tspan class="bj" x="16.85" y="0">r</tspan><tspan class="bp" x="20.44" y="0">c</tspan><tspan x="25.17" y="0">es</tspan></tspan><tspan class="u"><tspan class="bl" x="0" y="12">f</tspan><tspan x="3.34" y="12">o</tspan><tspan class="bm" x="9.01" y="12">n</tspan><tspan x="14.52" y="12">t-</tspan><tspan class="bm" x="21.82" y="12">w</tspan><tspan x="29.6" y="12">eig</tspan><tspan class="bm" x="42.48" y="12">h</tspan><tspan x="47.99" y="12">t: 700; </tspan><tspan class="ca" x="79.21" y="12">/</tspan><tspan x="81.5" y="12">/ </tspan><tspan class="cu" x="88.58" y="12">F</tspan><tspan x="93.8" y="12">o</tspan><tspan class="cd" x="99.47" y="12">r</tspan><tspan x="102.9" y="12" xml:space="preserve"> the</tspan><tspan class="cl" x="119.9" y="12"> </tspan><tspan class="bm" x="122.26" y="12">w</tspan><tspan x="130.04" y="12">o</tspan><tspan class="ck" x="135.71" y="12">r</tspan><tspan x="139.16" y="12">d “</tspan><tspan class="cv" x="150.97" y="12">S</tspan><tspan x="156.37" y="12">ou</tspan><tspan class="cw" x="167.61" y="12">r</tspan><tspan class="cx" x="171.05" y="12">c</tspan><tspan class="cy" x="175.73" y="12">e</tspan><tspan class="bp" x="180.84" y="12">”</tspan><tspan class="bl" x="0" y="24">f</tspan><tspan x="3.34" y="24">o</tspan><tspan class="bm" x="9.01" y="24">n</tspan><tspan x="14.52" y="24">t-</tspan><tspan class="bm" x="21.82" y="24">w</tspan><tspan x="29.6" y="24">eig</tspan><tspan class="bm" x="42.48" y="24">h</tspan><tspan x="47.99" y="24">t: 400; </tspan><tspan class="ca" x="79.21" y="24">/</tspan><tspan x="81.5" y="24">/ </tspan><tspan class="cu" x="88.58" y="24">F</tspan><tspan x="93.8" y="24">o</tspan><tspan class="cd" x="99.47" y="24">r</tspan><tspan x="102.9" y="24" xml:space="preserve"> the </tspan><tspan class="cl" x="122.46" y="24">r</tspan><tspan x="125.9" y="24">est</tspan><tspan class="bl" x="0" y="36">f</tspan><tspan x="3.34" y="36">o</tspan><tspan class="bm" x="9.01" y="36">n</tspan><tspan x="14.52" y="36">t-si</tspan><tspan class="bk" x="28.55" y="36">z</tspan><tspan class="bn" x="32.97" y="36">e: 11</tspan><tspan class="bo" x="54.91" y="36">p</tspan><tspan x="60.32" y="36">x;</tspan><tspan class="bp" x="0" y="48">c</tspan><tspan x="4.69" y="48">olor: </tspan><tspan class="bq" x="27.08" y="48">r</tspan><tspan x="30.61" y="48">gb(153,153,153);</tspan></tspan></text><polyline class="br" points="140.53 438.03 136.4 438.03 136.4 501.59 184.54 501.59"/><text class="cz" transform="translate(124.58 125.94)">8<tspan class="bo" x="4.64" y="0">p</tspan><tspan x="8.96" y="0">x</tspan></text><polyline class="br" points="143.53 118.73 139.53 118.73 141.53 118.73 141.53 128.44 139.53 128.44 143.53 128.44"/><text class="cz" transform="translate(273.53 173.86)">8<tspan class="bo" x="4.64" y="0">p</tspan><tspan x="8.96" y="0">x</tspan></text><polyline class="br" points="271.53 166.65 267.53 166.65 269.53 166.65 269.53 176.35 267.53 176.35 271.53 176.35"/><text class="cz" transform="translate(182.53 232.69)">8<tspan class="bo" x="4.64" y="0">p</tspan><tspan x="8.96" y="0">x</tspan></text><polyline class="br" points="180.53 225.48 176.53 225.48 178.53 225.48 178.53 235.18 176.53 235.18 180.53 235.18"/><text class="cz" transform="translate(182.53 204.52)">24<tspan class="bo" x="9.28" y="0">p</tspan><tspan class="da" x="13.6" y="0">x</tspan></text><polyline class="br" points="180.53 189.89 176.53 189.89 178.53 189.89 178.53 214.43 176.53 214.43 180.53 214.43"/><text class="cz" transform="translate(807.54 515.11)">8<tspan class="bo" x="4.64" y="0">p</tspan><tspan x="8.96" y="0">x</tspan></text><polyline class="br" points="805.54 507.9 801.54 507.9 803.54 507.9 803.54 517.61 801.54 517.61 805.54 517.61"/><text class="db" transform="translate(50.8 64.96)">WEB</text></svg>