<svg xmlns="http://www.w3.org/2000/svg" viewBox="0 0 154.44 168.44"><defs><style>.a{fill:#0072bc;}</style></defs><title>unhcr-logo-vertical</title><path class="a" d="M26.79,139.61c0,8.15-4.4,12.06-13.37,12.06S0,147.75,0,139.61v-18H9.06v16c0,3,0,6.75,4.4,6.75s4.28-3.75,4.28-6.75v-16h9.05v18"/><polygon class="a" points="32.23 121.58 41.48 121.58 50.04 137.3 50.12 137.3 50.12 121.58 58.68 121.58 58.68 150.96 49.88 150.96 40.87 134.91 40.78 134.91 40.78 150.96 32.23 150.96 32.23 121.58"/><polygon class="a" points="64.24 121.58 73.29 121.58 73.29 131.79 81.77 131.79 81.77 121.58 90.82 121.58 90.82 150.96 81.77 150.96 81.77 139.32 73.29 139.32 73.29 150.96 64.24 150.96 64.24 121.58"/><path class="a" d="M114,132.53a4.71,4.71,0,0,0-4.73-4.32c-4.24,0-5.59,4.11-5.59,8.06s1.36,8.07,5.59,8.07c3,0,4.24-2.14,4.78-4.9h8.89c0,5.92-4.81,12.22-13.41,12.22-9.5,0-14.9-6.71-14.9-15.39,0-9.26,5.84-15.39,14.9-15.39,8.06,0,12.51,4.28,13.29,11.64H114"/><path class="a" d="M135.76,128.58H140c3.46,0,4.49,1.07,4.49,2.92,0,2.63-2.31,2.92-4,2.92h-4.73ZM126.7,151h9.05V140.72h4.82c3.58,0,3.82,2.92,4.07,5.72a20.87,20.87,0,0,0,.74,4.52h9.05c-.83-1.36-.86-4.85-1-6.29-.33-3.66-1.85-6.38-4.32-7.33,3-1.11,4.4-4.32,4.4-7.37,0-5.56-4.45-8.39-9.59-8.39H126.7V151"/><polygon class="a" points="2.95 157.72 0 157.72 0 155.9 8.07 155.9 8.07 157.72 5.12 157.72 5.12 165.74 2.95 165.74 2.95 157.72"/><path class="a" d="M8.74,155.9h2v3.71h0a2.51,2.51,0,0,1,2.08-1.19c2.08,0,2.61,1.17,2.61,2.94v4.38h-2v-4c0-1.17-.34-1.75-1.25-1.75-1.06,0-1.52.59-1.52,2v3.74h-2V155.9"/><path class="a" d="M18.23,162.65c.05,1.24.66,1.81,1.75,1.81a1.61,1.61,0,0,0,1.54-.92h1.72a3.21,3.21,0,0,1-3.34,2.4,3.48,3.48,0,0,1-3.64-3.75,3.58,3.58,0,0,1,3.64-3.76c2.43,0,3.6,2,3.46,4.23Zm3.18-1.24c-.18-1-.61-1.52-1.56-1.52a1.54,1.54,0,0,0-1.63,1.52h3.18"/><path class="a" d="M36.08,162c0,2.66-1.57,4-4.2,4s-4.19-1.28-4.19-4V155.9h2.16V162c0,1.07.28,2.14,2,2.14,1.54,0,2-.68,2-2.14V155.9h2.16V162"/><polygon class="a" points="37.53 155.9 39.68 155.9 43.79 162.5 43.82 162.5 43.82 155.9 45.84 155.9 45.84 165.74 43.68 165.74 39.59 159.15 39.56 159.15 39.56 165.74 37.53 165.74 37.53 155.9"/><path class="a" d="M52.73,157.58H55.1c1,0,1.49.42,1.49,1.37s-.52,1.41-1.49,1.41H52.73Zm-2.16,8.16h2.16v-3.85h2.16c1.09,0,1.49.46,1.64,1.49a10.88,10.88,0,0,0,.34,2.36H59a5.39,5.39,0,0,1-.41-2.33c-.07-1-.37-2-1.43-2.3v0a2.42,2.42,0,0,0,1.56-2.47,2.7,2.7,0,0,0-2.88-2.72H50.56v9.84"/><path class="a" d="M61.67,161.41a1.54,1.54,0,0,1,1.63-1.52c1,0,1.38.52,1.56,1.52Zm5.14,1.24c.14-2.19-1-4.23-3.46-4.23a3.57,3.57,0,0,0-3.64,3.76,3.48,3.48,0,0,0,3.64,3.75,3.21,3.21,0,0,0,3.34-2.4H65a1.61,1.61,0,0,1-1.54.92c-1.09,0-1.7-.56-1.75-1.81h5.14"/><path class="a" d="M68.11,159.92H66.93v-1.31h1.17v-.55a2.09,2.09,0,0,1,2.38-2.16c.34,0,.7,0,1,.06v1.46a5.93,5.93,0,0,0-.72,0c-.52,0-.74.22-.74.81v.43h1.35v1.31H70.06v5.82h-2v-5.82"/><path class="a" d="M78.71,165.74H76.85v-1h0a2.55,2.55,0,0,1-2.18,1.19c-2.08,0-2.61-1.17-2.61-2.94v-4.38h2v4c0,1.17.34,1.75,1.25,1.75s1.52-.59,1.52-2v-3.74h2v7.13"/><path class="a" d="M83.22,164.06c-1.2,0-1.58-1.12-1.58-2.14s.48-2,1.58-2c1.27,0,1.67,1,1.67,2.19a1.75,1.75,0,0,1-1.67,2m3.53-5.45H84.88v1h0a2.22,2.22,0,0,0-2.12-1.14c-2,0-3.06,1.68-3.06,3.53s.91,3.59,3,3.59a2.41,2.41,0,0,0,2.14-1.1h0v.94c0,1-.48,1.76-1.57,1.76a1.33,1.33,0,0,1-1.46-1H79.91c.09,1.63,1.74,2.29,3.14,2.29,3.28,0,3.69-2,3.69-3.16v-6.67"/><path class="a" d="M89.68,161.41a1.54,1.54,0,0,1,1.63-1.52c1,0,1.38.52,1.56,1.52Zm5.14,1.24c.14-2.19-1-4.23-3.46-4.23a3.57,3.57,0,0,0-3.64,3.76,3.48,3.48,0,0,0,3.64,3.75,3.21,3.21,0,0,0,3.34-2.4H93a1.61,1.61,0,0,1-1.54.92c-1.09,0-1.7-.56-1.75-1.81h5.14"/><path class="a" d="M97.35,161.41A1.54,1.54,0,0,1,99,159.89c1,0,1.38.52,1.56,1.52Zm5.14,1.24c.14-2.19-1-4.23-3.46-4.23a3.57,3.57,0,0,0-3.64,3.76A3.48,3.48,0,0,0,99,165.93a3.21,3.21,0,0,0,3.34-2.4h-1.72a1.61,1.61,0,0,1-1.55.92c-1.09,0-1.69-.56-1.75-1.81h5.14"/><path class="a" d="M111.45,158.32h0l1.24,3.61h-2.55Zm-4.81,7.42h2.19l.77-2.19h3.68l.75,2.19h2.25l-3.68-9.84h-2.22Z"/><path class="a" d="M119.95,164.06c-1.2,0-1.59-1.12-1.59-2.14s.48-2,1.59-2c1.27,0,1.67,1,1.67,2.19a1.76,1.76,0,0,1-1.67,2m3.53-5.45h-1.86v1h0a2.22,2.22,0,0,0-2.12-1.14c-2,0-3.06,1.68-3.06,3.53s.91,3.59,3,3.59a2.41,2.41,0,0,0,2.14-1.1h0v.94c0,1-.48,1.76-1.57,1.76a1.33,1.33,0,0,1-1.46-1h-1.94c.1,1.63,1.74,2.29,3.14,2.29,3.28,0,3.7-2,3.7-3.16v-6.67"/><path class="a" d="M126.41,161.41a1.54,1.54,0,0,1,1.63-1.52c1,0,1.38.52,1.56,1.52Zm5.14,1.24c.14-2.19-1-4.23-3.46-4.23a3.57,3.57,0,0,0-3.64,3.76,3.48,3.48,0,0,0,3.64,3.75,3.2,3.2,0,0,0,3.34-2.4h-1.72a1.61,1.61,0,0,1-1.54.92c-1.09,0-1.7-.56-1.75-1.81h5.14"/><path class="a" d="M132.41,158.61h1.86v1h0a2.54,2.54,0,0,1,2.18-1.19c2.08,0,2.61,1.17,2.61,2.94v4.38h-2v-4c0-1.17-.34-1.75-1.25-1.75-1.06,0-1.52.59-1.52,2v3.74h-2v-7.13"/><path class="a" d="M145.13,161.12a1.33,1.33,0,0,0-1.45-1.23c-1.25,0-1.67,1.27-1.67,2.31s.4,2.25,1.63,2.25A1.51,1.51,0,0,0,145.2,163h1.89a3.19,3.19,0,0,1-3.43,2.93,3.46,3.46,0,0,1-3.6-3.65,3.53,3.53,0,0,1,3.64-3.86c1.68,0,3.23.88,3.35,2.7h-1.92"/><path class="a" d="M151.46,166.63a2.24,2.24,0,0,1-2.46,1.61,11.79,11.79,0,0,1-1.2-.07v-1.61a9.81,9.81,0,0,0,1.14.07.92.92,0,0,0,.67-1.34l-2.51-6.69h2.1l1.61,4.88h0l1.56-4.88h2l-3,8"/><path class="a" d="M81.14,79.94c1.4,0,1.22-.79,1.22-2.27V70.48c0-1.48-.15-2,.71-2,3,0,3.78-.27,3.78-2.91V38.93c0-7.27-5.15-6.07-6.61-8.73-2.07-3.59,3.86-3.59,1.71-11.38C81.4,17.07,80,16,77.34,16s-4.07,1.09-4.62,2.85c-2.15,7.78,3.78,7.78,1.71,11.38-1.46,2.65-6.61,1.45-6.61,8.73V65.62c0,2.64.81,2.91,3.78,2.91.84,0,.7.47.7,2v7.19c0,1.48-.17,2.27,1.23,2.27h7.6"/><path class="a" d="M57.67,22c-2.64,2.8-6.81,9.32-4.09,14.74,5.53,2.12,5.11-17.45,12-17.11,3.4,3.14-1,12.37-2.38,16.44-1.7,5-3.06,15.5-6.29,20.58-2.72,4.23-.68,17.53-1.53,22.11-2.29,2.28-8.51.67-11.14.25,0-5.25-.68-9.4-1.53-17.78-.08-1.69-1.87-27.62-.43-30.75,3-6.52,19.22-19,21.44-21.35C65.66,7,72.55,0,75.2,0c1.87,1.27.76,4.23.34,5.42-2.63,6.52-14,13-17.86,16.6"/><path class="a" d="M97.31,22c2.55,2.8,6.72,9.32,4.08,14.74-5.61,2.12-5.18-17.45-12.08-17.11C86,22.79,90.42,32,91.78,36.09c1.7,5,3.06,15.5,6.29,20.58,2.64,4.23.68,17.53,1.44,22.11,2.38,2.28,8.51.67,11.22.25,0-5.25.6-9.4,1.45-17.78.17-1.69,2-27.62.51-30.75-3-6.52-19.22-19-21.43-21.35C89.23,7,82.42,0,79.78,0c-2,1.27-.76,4.23-.34,5.42,2.64,6.52,14,13,17.86,16.6"/><path class="a" d="M34,13.24c-1.45,1.36-4.69,2.29-6.9,5.26-.85-1.61,1.36-5.51,4-7.81,2-1.62,5.8-4.24,6.9-4.5.85,2-2.21,4.93-4,7"/><path class="a" d="M29.53,23.85c-2.47,2.3-5.11,3.23-8.53,7.39a25,25,0,0,1-.43-12.39c1.2-3.9,3.16-8.23,6.48-9.59A36.72,36.72,0,0,0,25,18.67c-1.45,5.69-2.3,5.86-2,6.62.34,0,2.21-3,4.51-5.26,2.73-2.71,6.13-3.31,8.35-4.92-.34,1.1-2.3,4.58-6.39,8.74"/><path class="a" d="M17.5,47.36c-3.32-5.94-3.66-10.27-3.92-15.28.18-3.48,1.88-11.54,4.43-12.73-.76,7.29,1.2,8,.43,14,0,.34-.86,6.62-.86,7,1-.17.09-5.77,11.76-13.83-2.56,4.41-1.36,5.77-6,11.62C18,43.37,17.25,48.55,17.5,47.36"/><path class="a" d="M22.2,53c-2.47,3.56-2,5.35-2.64,7C13.67,56.61,7,43.12,9.5,36.41c1.53,5.09,3.66,6.2,5.2,10.44,2.64,6.37,2.22,8.32,3.92,9.76-.34-3.31.77-7.21,1.88-10.1,1.62-2.46,2.9-5.69,4.09-6.79,1.28,4.67.34,8.49-2.39,13.24"/><path class="a" d="M27.48,64.5c0,5.18-.94,7.47-1.36,11.29C16,72.48,10.68,60.94,10.68,55.25c3.07,7,7.59,6.87,13.47,16.72.51-3.73-1-.93-1.2-8,.17-7.39,1.71-7.64,2-12.22,1.87,2,2.56,10.18,2.56,12.73"/><path class="a" d="M35.92,79.18C36.69,83,37,87.5,37.62,90.81c-5.79-2.12-7.24-.51-14.14-4.84-3.15-1.7-8.78-8.83-8.43-13.92,6.81,7.55,8,6.71,11.33,9.51,3.06,2.46,5.53,6.11,7.76,5.6.16-2-5-6.45-4.35-19.18,1.36,1.44,5.11,7.21,6.14,11.2"/><path class="a" d="M47.42,88.69c1.79,2.55,1.37,3.65,6,8.91a50.44,50.44,0,0,1-12,2.38c-2.89,0-13.12-2.72-16.53-9.68,5.88,3.15,6,2.38,13.8,4.08,5.63,1.27,9.63,3.05,11.17,2.89-.34-.76-4.69-2.55-7.67-6.28-3-4-2.31-8.49-5-11.8C39,78.67,46,86.82,47.42,88.69"/><path class="a" d="M120.46,13.24c1.37,1.36,4.69,2.29,6.82,5.26.94-1.61-1.36-5.51-4-7.81-1.87-1.62-5.71-4.24-6.91-4.5-.86,2,2.22,4.93,4.09,7"/><path class="a" d="M125,23.85c2.39,2.3,5,3.23,8.44,7.39a24.9,24.9,0,0,0,.43-12.39c-1.11-3.9-3.15-8.23-6.48-9.59a33.39,33.39,0,0,1,2,9.42c1.45,5.69,2.3,5.86,2,6.62-.34,0-2.22-3-4.52-5.26-2.64-2.71-6.05-3.31-8.35-4.92.34,1.1,2.39,4.58,6.48,8.74"/><path class="a" d="M136.91,47.36c3.4-5.94,3.66-10.27,3.92-15.28-.17-3.48-1.87-11.54-4.34-12.73.68,7.29-1.28,8-.43,14,0,.34.77,6.62.77,7-.94-.17-.09-5.77-11.68-13.83,2.47,4.41,1.28,5.77,5.88,11.62,5.46,5.26,6.14,10.44,5.89,9.25"/><path class="a" d="M132.31,53c2.39,3.56,2,5.35,2.56,7,5.88-3.4,12.61-16.89,10.06-23.59-1.45,5.09-3.67,6.2-5.12,10.44-2.73,6.37-2.3,8.32-3.92,9.76.34-3.31-.85-7.21-2-10.1-1.54-2.46-2.9-5.69-4.09-6.79-1.2,4.67-.34,8.49,2.47,13.24"/><path class="a" d="M126.93,64.5c0,5.18,1,7.47,1.45,11.29,10.06-3.31,15.43-14.85,15.43-20.54-3.16,7-7.59,6.87-13.55,16.72-.51-3.73,1-.93,1.2-8-.17-7.39-1.71-7.64-2-12.22-1.88,2-2.56,10.18-2.56,12.73"/><path class="a" d="M118.5,79.18c-.77,3.82-1,8.32-1.62,11.63,5.71-2.12,7.16-.51,14.07-4.84,3.15-1.7,8.86-8.83,8.52-13.92-6.82,7.55-8.1,6.71-11.34,9.51-3.07,2.46-5.62,6.11-7.85,5.6-.17-2,5-6.45,4.44-19.18a33.86,33.86,0,0,0-6.22,11.2"/><path class="a" d="M107,88.69c-1.7,2.55-1.28,3.65-6,8.91a51.38,51.38,0,0,0,12.1,2.38c2.81,0,13-2.72,16.45-9.68-5.88,3.15-6,2.38-13.81,4.08-5.63,1.27-9.55,3.05-11.16,2.89.33-.76,4.77-2.55,7.67-6.28,3-4,2.3-8.49,5-11.8-1.88-.51-8.86,7.64-10.32,9.51"/><path class="a" d="M62.67,112.62l-1.7-.85a37.46,37.46,0,0,1,29.4-12.14c18.57,1,17.3,5.35,27.27,4.67,1.11-.09-.85,1.35-.85,1.35a34.54,34.54,0,0,1-21.73-.34c-11.94-4.07-19.69-6.53-32.39,7.3"/><path class="a" d="M92.07,112.62l1.71-.85A37.2,37.2,0,0,0,64.46,99.64c-18.66,1-17.38,5.35-27.36,4.67-1.1-.09.86,1.35.86,1.35a34.55,34.55,0,0,0,21.74-.34c12-4.07,19.77-6.53,32.37,7.3"/></svg>